<?xml version="1.0" encoding="UTF-8"?>
<svg id="b" data-name="Layer 2" xmlns="http://www.w3.org/2000/svg" viewBox="0 0 132.77 126.46">
  <defs>
    <style>
      .d {
        fill: #e1f1ff;
        fill-rule: evenodd;
      }
    </style>
  </defs>
  <g id="c" data-name="Layer 1">
    <g>
      <path class="d" d="M47.48,7.34c-20.79,12.81-36.14,26.85-29.76,66.84,5.33-21.5,17.51-11.8,42.86,6.73-22.49-21.6-19.22-46.25-13.11-73.57Z"/>
      <path class="d" d="M68.32,82.75C40.34,57.03,40.67,17.1,64.52,0c-14.73,43.65,23.4,64.54,30.78,100.77-9.03-10.39-20.71-18.57-26.99-18.02Z"/>
      <path class="d" d="M0,73.8c39.31.8,72.98,8.42,95.3,31.21-23.18-1.89-46.53-6.27-71.97-2.81-4.43-12.81-12.16-22.33-23.33-28.39Z"/>
      <path class="d" d="M3.09,89.4c-.75,41.14,73.93,22.63,109.92,22.35-29.33-14.58-92.96,11.44-109.92-22.35Z"/>
      <path class="d" d="M0,105c19.29,35.08,88.71,18.72,130.48,9.52,1.86-.41,3.08-.87,1.69-.88C94.04,113.35,19.52,129.76,0,105Z"/>
    </g>
  </g>
</svg>