<svg xmlns="http://www.w3.org/2000/svg" xmlns:xlink="http://www.w3.org/1999/xlink" width="500" zoomAndPan="magnify" viewBox="0 0 375 83.04" height="100" preserveAspectRatio="xMidYMid meet" version="1.0"><defs><g/></defs><g fill="#000000" fill-opacity="1"><g transform="translate(10.298571, 51.104949)"><g><path d="M 48.40625 0 L 34.65625 0 L 34.65625 -13.21875 L 17.40625 -13.21875 L 17.40625 0 L 3.65625 0 L 3.65625 -32.765625 L 17.40625 -32.765625 L 17.40625 -19.53125 L 34.65625 -19.53125 L 34.65625 -32.765625 L 48.40625 -32.765625 Z M 48.40625 0 "/></g></g></g><g fill="#000000" fill-opacity="1"><g transform="translate(62.364422, 51.104949)"><g><path d="M 24.78125 0.703125 C 16.675781 0.703125 10.710938 -0.960938 6.890625 -4.296875 C 3.515625 -7.242188 1.828125 -11.269531 1.828125 -16.375 C 1.828125 -21.457031 3.515625 -25.472656 6.890625 -28.421875 C 10.710938 -31.765625 16.675781 -33.4375 24.78125 -33.4375 C 32.875 -33.4375 38.832031 -31.765625 42.65625 -28.421875 C 46.03125 -25.472656 47.71875 -21.457031 47.71875 -16.375 C 47.71875 -11.269531 46.03125 -7.242188 42.65625 -4.296875 C 38.832031 -0.960938 32.875 0.703125 24.78125 0.703125 Z M 24.78125 -8.078125 C 28.09375 -8.078125 30.523438 -9.03125 32.078125 -10.9375 C 33.328125 -12.476562 33.953125 -14.289062 33.953125 -16.375 C 33.953125 -18.457031 33.328125 -20.257812 32.078125 -21.78125 C 30.523438 -23.695312 28.09375 -24.65625 24.78125 -24.65625 C 21.457031 -24.65625 19.015625 -23.695312 17.453125 -21.78125 C 16.203125 -20.257812 15.578125 -18.457031 15.578125 -16.375 C 15.578125 -14.289062 16.203125 -12.476562 17.453125 -10.9375 C 19.015625 -9.03125 21.457031 -8.078125 24.78125 -8.078125 Z M 24.78125 -8.078125 "/></g></g></g><g fill="#000000" fill-opacity="1"><g transform="translate(107.807738, 51.104949)"><g><path d="M 31.46875 0 L 18.703125 0 L 0.34375 -32.75 L 14.265625 -32.75 L 25.09375 -9.34375 L 35.890625 -32.75 L 49.828125 -32.75 Z M 31.46875 0 "/></g></g></g><g fill="#000000" fill-opacity="1"><g transform="translate(157.978215, 51.104949)"><g><path d="M 41.90625 0 L 3.65625 0 L 3.65625 -32.765625 L 17.40625 -32.765625 L 17.40625 -8.109375 L 41.90625 -8.109375 Z M 41.90625 0 "/></g></g></g><g fill="#000000" fill-opacity="1"><g transform="translate(253.771222, 18.30112)"><g><path d="M -31.46875 0 L -18.703125 0 L -0.34375 32.75 L -14.265625 32.75 L -25.09375 9.34375 L -35.890625 32.75 L -49.828125 32.75 Z M -31.46875 0 "/></g></g></g><g fill="#000000" fill-opacity="1"><g transform="translate(256.309949, 51.104949)"><g><path d="M 52.265625 0 L 35.921875 0 L 17.40625 -22.171875 L 17.40625 0 L 3.65625 0 L 3.65625 -32.765625 L 20 -32.765625 L 38.515625 -10.703125 L 38.515625 -32.765625 L 52.265625 -32.765625 Z M 52.265625 0 "/></g></g></g><g fill="#000000" fill-opacity="1"><g transform="translate(312.235072, 51.104949)"><g><path d="M 25.578125 0 L 3.65625 0 L 3.65625 -32.765625 L 25.578125 -32.765625 C 34.546875 -32.765625 40.992188 -31.507812 44.921875 -29 C 48.085938 -26.976562 49.890625 -24.222656 50.328125 -20.734375 C 50.523438 -19.222656 50.625 -17.769531 50.625 -16.375 C 50.625 -14.988281 50.523438 -13.535156 50.328125 -12.015625 C 50.140625 -10.503906 49.632812 -9.035156 48.8125 -7.609375 C 48 -6.191406 46.695312 -4.910156 44.90625 -3.765625 C 43.113281 -2.628906 40.660156 -1.71875 37.546875 -1.03125 C 34.429688 -0.34375 30.441406 0 25.578125 0 Z M 24.265625 -8.109375 C 31.253906 -8.109375 35.207031 -9.875 36.125 -13.40625 C 36.363281 -14.394531 36.484375 -15.382812 36.484375 -16.375 C 36.484375 -17.375 36.359375 -18.363281 36.109375 -19.34375 C 35.859375 -20.332031 35.328125 -21.222656 34.515625 -22.015625 C 33.703125 -22.816406 32.476562 -23.457031 30.84375 -23.9375 C 29.21875 -24.414062 27.023438 -24.65625 24.265625 -24.65625 L 17.40625 -24.65625 L 17.40625 -8.109375 Z M 24.265625 -8.109375 "/></g></g></g></svg>