<svg xmlns="http://www.w3.org/2000/svg" xmlns:xlink="http://www.w3.org/1999/xlink" width="500" zoomAndPan="magnify" viewBox="0 0 375 74.999997" height="100" preserveAspectRatio="xMidYMid meet" version="1.0"><defs><g/></defs><g fill="#e87b7b" fill-opacity="1"><g transform="translate(8.250007, 51.695755)"><g><path d="M 48.96875 0 L 35.0625 0 L 35.0625 -13.375 L 17.609375 -13.375 L 17.609375 0 L 3.703125 0 L 3.703125 -33.15625 L 17.609375 -33.15625 L 17.609375 -19.75 L 35.0625 -19.75 L 35.0625 -33.15625 L 48.96875 -33.15625 Z M 48.96875 0 "/></g></g></g><g fill="#e87b7b" fill-opacity="1"><g transform="translate(60.917773, 51.695755)"><g><path d="M 25.0625 0.71875 C 16.875 0.71875 10.847656 -0.96875 6.984375 -4.34375 C 3.554688 -7.332031 1.84375 -11.40625 1.84375 -16.5625 C 1.84375 -21.707031 3.554688 -25.773438 6.984375 -28.765625 C 10.847656 -32.140625 16.875 -33.828125 25.0625 -33.828125 C 33.257812 -33.828125 39.289062 -32.140625 43.15625 -28.765625 C 46.570312 -25.773438 48.28125 -21.707031 48.28125 -16.5625 C 48.28125 -11.40625 46.570312 -7.332031 43.15625 -4.34375 C 39.289062 -0.96875 33.257812 0.71875 25.0625 0.71875 Z M 25.0625 -8.171875 C 28.425781 -8.171875 30.890625 -9.132812 32.453125 -11.0625 C 33.722656 -12.625 34.359375 -14.457031 34.359375 -16.5625 C 34.359375 -18.675781 33.722656 -20.503906 32.453125 -22.046875 C 30.890625 -23.984375 28.425781 -24.953125 25.0625 -24.953125 C 21.707031 -24.953125 19.238281 -23.984375 17.65625 -22.046875 C 16.382812 -20.503906 15.75 -18.675781 15.75 -16.5625 C 15.75 -14.457031 16.382812 -12.625 17.65625 -11.0625 C 19.238281 -9.132812 21.707031 -8.171875 25.0625 -8.171875 Z M 25.0625 -8.171875 "/></g></g></g><g fill="#e87b7b" fill-opacity="1"><g transform="translate(106.886443, 51.695755)"><g><path d="M 31.828125 0 L 18.921875 0 L 0.34375 -33.125 L 14.4375 -33.125 L 25.390625 -9.453125 L 36.3125 -33.125 L 50.40625 -33.125 Z M 31.828125 0 "/></g></g></g><g fill="#e87b7b" fill-opacity="1"><g transform="translate(157.636924, 51.695755)"><g><path d="M 42.390625 0 L 3.703125 0 L 3.703125 -33.15625 L 17.609375 -33.15625 L 17.609375 -8.203125 L 42.390625 -8.203125 Z M 42.390625 0 "/></g></g></g><g fill="#e87b7b" fill-opacity="1"><g transform="translate(254.53736, 18.512693)"><g><path d="M -31.828125 0 L -18.921875 0 L -0.34375 33.125 L -14.4375 33.125 L -25.390625 9.453125 L -36.3125 33.125 L -50.40625 33.125 Z M -31.828125 0 "/></g></g></g><g fill="#e87b7b" fill-opacity="1"><g transform="translate(257.105437, 51.695755)"><g><path d="M 52.875 0 L 36.34375 0 L 17.609375 -22.4375 L 17.609375 0 L 3.703125 0 L 3.703125 -33.15625 L 20.234375 -33.15625 L 38.96875 -10.828125 L 38.96875 -33.15625 L 52.875 -33.15625 Z M 52.875 0 "/></g></g></g><g fill="#e87b7b" fill-opacity="1"><g transform="translate(313.677091, 51.695755)"><g><path d="M 25.875 0 L 3.703125 0 L 3.703125 -33.15625 L 25.875 -33.15625 C 34.945312 -33.15625 41.46875 -31.882812 45.4375 -29.34375 C 48.644531 -27.289062 50.472656 -24.5 50.921875 -20.96875 C 51.117188 -19.445312 51.21875 -17.976562 51.21875 -16.5625 C 51.21875 -15.164062 51.117188 -13.695312 50.921875 -12.15625 C 50.734375 -10.625 50.222656 -9.140625 49.390625 -7.703125 C 48.554688 -6.265625 47.234375 -4.96875 45.421875 -3.8125 C 43.617188 -2.65625 41.140625 -1.726562 37.984375 -1.03125 C 34.835938 -0.34375 30.800781 0 25.875 0 Z M 24.5625 -8.203125 C 31.625 -8.203125 35.617188 -9.988281 36.546875 -13.5625 C 36.796875 -14.5625 36.921875 -15.5625 36.921875 -16.5625 C 36.921875 -17.582031 36.789062 -18.585938 36.53125 -19.578125 C 36.28125 -20.566406 35.742188 -21.46875 34.921875 -22.28125 C 34.097656 -23.09375 32.859375 -23.738281 31.203125 -24.21875 C 29.554688 -24.707031 27.34375 -24.953125 24.5625 -24.953125 L 17.609375 -24.953125 L 17.609375 -8.203125 Z M 24.5625 -8.203125 "/></g></g></g></svg>