<?xml version="1.0" encoding="UTF-8"?>
<svg id="b" data-name="Layer 2" xmlns="http://www.w3.org/2000/svg" viewBox="0 0 254.88 72">
  <defs>
    <style>
      .d {
        fill: #020302;
        stroke-width: 0px;
      }
    </style>
  </defs>
  <g id="c" data-name="Layer 3">
    <g>
      <path class="d" d="M.28,52.09c.47-7.98,2.04-14.93,3.1-21.78,1.59-10.26,2.3-18.39,8.81-24.44,7.91-7.34,25.82-7.83,30.18.11,2.65,4.82,2.22,10.88.55,21.95l-14.65.14c.34-3.16,1.2-10.11,1.35-11.66.44-4.54-7.16-5.19-8.71,2.35-1.31,6.36-3.96,21.88-5.76,33.57-.68,4.45,0,7.36,3.06,7.36,4.53,0,5.62-6.36,6.89-16.17l14.62-.11c-2.37,20.09-9.78,28.23-22.63,27.99-10.55,0-18.74-2.2-16.81-19.3Z"/>
      <path class="d" d="M47.18,66.96c-7.18-9.33-1.98-24.48-.52-34.94C49.18,13.94,53.48.32,71.47,0c24.11-.18,17.52,23.55,14.13,39.72-1.76,9.56-3.21,20.96-10.41,27.02-7.4,6.08-21.02,7.76-27.91.34l-.1-.12ZM68.64,48.66c1.21-5.65,3.67-19.58,4.47-25.06.43-2.93,1.11-7.5-.47-9.8-1.49-2.17-6.67-2.24-8.05,3.93-2.2,9.83-3.77,21.49-5.51,30.92-1.83,9.94,1.48,10.52,2.87,10.55,1.96.04,4.35.38,6.69-10.54Z"/>
      <path class="d" d="M98.57,70.25h-12.41L99.14,1.36h16.5l.5,37.5h.13L129.17,1.36h15.85l-10.35,68.89-11.53.04,4.59-36.13h-.13l-11.49,36.09-10.41.09-.34-36.18h-.13l-6.65,36.09Z"/>
      <path class="d" d="M154.54,70.25h-12.41L154.43,1.36h16.38l-.15,35.13.07,2.39h.13l1.1-2.39L184.87,1.36h15.93l-10.17,68.89h-13.23l4.94-28.04,1.3-7.34h-.13l-1.17,3.03-11.23,32.36h-10.33l-.2-35.38h-.13l-1.11,7.32-4.8,28.06Z"/>
      <path class="d" d="M235.11,1.36l.79,68.89h-14.31l.25-14.67h-8.66l-4.86,14.67h-14.65L218.46,1.36h16.65ZM216.03,45.62h6.39l.09-15.4.03-3.28h-.59M216.03,44.2l5.89-17.17"/>
      <path class="d" d="M241.76,55.7h13.12l-1.85,14.55h-14.01l2.73-14.55Z"/>
    </g>
  </g>
</svg>